<mxfile host="app.diagrams.net" agent="Mozilla/5.0 (Windows NT 10.0; Win64; x64) AppleWebKit/537.36 (KHTML, like Gecko) Chrome/137.0.0.0 Safari/537.36 Edg/137.0.0.0" version="27.1.4">
  <diagram name="第 1 页" id="DjKE4tLTJ360DlwCf7XT">
    <mxGraphModel dx="3409" dy="2318" grid="1" gridSize="10" guides="1" tooltips="1" connect="1" arrows="1" fold="1" page="1" pageScale="1" pageWidth="827" pageHeight="1169" math="0" shadow="0">
      <root>
        <mxCell id="0" />
        <mxCell id="1" parent="0" />
        <mxCell id="WpgspOlR7vtGrMj2Mmy2-7" style="edgeStyle=orthogonalEdgeStyle;rounded=0;orthogonalLoop=1;jettySize=auto;html=1;exitX=1;exitY=0.5;exitDx=0;exitDy=0;entryX=0;entryY=0.5;entryDx=0;entryDy=0;strokeWidth=4;" edge="1" parent="1" source="WpgspOlR7vtGrMj2Mmy2-2" target="WpgspOlR7vtGrMj2Mmy2-6">
          <mxGeometry relative="1" as="geometry" />
        </mxCell>
        <mxCell id="WpgspOlR7vtGrMj2Mmy2-2" value="" style="shape=image;verticalLabelPosition=bottom;labelBackgroundColor=default;verticalAlign=top;aspect=fixed;imageAspect=0;editableCssRules=.*;image=data:image/svg+xml,PHN2ZyB4bWxuczp4bGluaz0iaHR0cDovL3d3dy53My5vcmcvMTk5OS94bGluayIgeG1sbnM9Imh0dHA6Ly93d3cudzMub3JnLzIwMDAvc3ZnIiBoZWlnaHQ9IjE0NS4zNzEyNzAxNzk3NDg1NCIgd2lkdGg9IjE1Ni4yNSIgdmVyc2lvbj0iMS4xIiB2aWV3Qm94PSIxMTIgMTUxLjY5OTEyNzE5NzI2NTYyIDgwMCA3NDQuMzAwOTAzMzIwMzEyNSIgY2xhc3M9Imljb24iPjxwYXRoIGZpbGw9IiM0MkI0RkEiIGQ9Ik05MTIgNDMyYTQ4IDQ4IDAgMCAwLTQ4LTQ4SDE2MGE0OCA0OCAwIDAgMC00OCA0OHYxMjhhNDggNDggMCAwIDAgNDggNDh2MjQwYTQ4IDQ4IDAgMCAwIDQ4IDQ4aDYwOGE0OCA0OCAwIDAgMCA0OC00OFY2MDhhNDggNDggMCAwIDAgNDgtNDh2LTEyOHoiLz48cGF0aCBmaWxsPSIjOTJEQkZGIiBkPSJNNDkwLjc1MiAxNTIuNDQ4YTQ4IDQ4IDAgMCAxIDU1LjY5NiAzOC44bDI0LjIwOCAxMzUuMjggODMuMjE2LTE0MS4xODRhNDggNDggMCAwIDEgNjUuNzI4LTE2Ljk2bDExMC4yNzIgNjQuOTkyYTQ4IDQ4IDAgMCAxIDE2Ljk2IDY1LjcyOEw3OTYuOCAzODRIMTkwLjgzMmwtMjIuMzg0LTEyNS4xNTJhNDggNDggMCAwIDEgMzguOC01NS42OGwyODMuNTA0LTUwLjcyeiIvPjxwYXRoIGZpbGw9IiNGRkZGRkYiIGQ9Ik0yODQuMTYgNTEyaDIzMC4wOTZjMTUuNjY0IDAgMjkuNzQ0IDE1LjE1MiAyOS43NDQgMzIgMCAxOC41MjgtMTQuMDggMzItMjkuNzQ0IDMyaC0yMzAuMDhjLTcuODQgMC0xNS42NDgtMy4zNi0yMC4zNTItMTEuNzkyLTMuMTItMy4zNi00LjY4OC02LjcyLTYuMjU2LTEwLjA5Ni0xLjU2OC0zLjM2LTEuNTY4LTguNDMyLTEuNTY4LTExLjc5MiAwLTMuMzYgMC04LjQzMiAxLjU2OC0xMS43OTIgMS41NjgtMy4zNiAzLjEzNi02LjczNiA2LjI1Ni0xMC4xMTIgNC43MDQtNS4wNTYgMTIuNTI4LTguNDE2IDIwLjM1Mi04LjQxNnoiLz48L3N2Zz4=;" vertex="1" parent="1">
          <mxGeometry x="-570.61" y="350" width="301.21" height="280" as="geometry" />
        </mxCell>
        <mxCell id="WpgspOlR7vtGrMj2Mmy2-4" value="attributes" style="text;html=1;align=center;verticalAlign=middle;resizable=0;points=[];autosize=1;strokeColor=none;fillColor=none;fontSize=80;fontFamily=Times New Roman;" vertex="1" parent="1">
          <mxGeometry x="-570.61" y="650" width="320" height="110" as="geometry" />
        </mxCell>
        <mxCell id="WpgspOlR7vtGrMj2Mmy2-6" value="LLM" style="rounded=1;whiteSpace=wrap;html=1;fontFamily=Times New Roman;fontSize=80;fillColor=#dae8fc;strokeColor=#6c8ebf;" vertex="1" parent="1">
          <mxGeometry x="-110" y="435" width="220" height="110" as="geometry" />
        </mxCell>
      </root>
    </mxGraphModel>
  </diagram>
</mxfile>
